<svg xmlns="http://www.w3.org/2000/svg" width="1000" height="1000" viewBox="0 0 1000 1000">
  <defs>
    <style>
      .cls-1 {
        fill: #fff;
        fill-rule: evenodd;
      }
    </style>
  </defs>
  <rect id="圆角矩形_1" data-name="圆角矩形 1" x="11" y="11" width="978" height="978" rx="100" ry="100"/>
  <path id="LOGO-4_1" data-name="LOGO-4 1" class="cls-1" d="M735.93,863l-40.218-23.218L451.8,699.016l63.862-36.793,61.2,35.256L755.139,800.364V595.57l-62.016-35.782,62.016-35.775v-0.748l2.248-.077,0.485,0.236L819,558.762V863H735.93ZM393.255,593.52L819,347.839v73.742L393.255,667.258V593.52ZM755.139,199.834H720.775L458.836,350.945l120.683,69.614-63.862,36.8-61.2-35.263-61.2-35.339V315.132L703.646,136h106.46L819,141.074V282.356l-63.861,36.873V199.834ZM333.759,630.909L152,525.987V454.36L336.489,347.911v73.674L217.58,490.177l118.909,68.585v72.382h-2.248Z"/>
</svg>
